<svg xmlns="http://www.w3.org/2000/svg" viewBox="0 0 946.8 306.72"><defs><style>.cls-1{fill:none;}.cls-2{fill:#322b4f;}.cls-3{fill:#f5a21f;}.cls-4{fill:#ffd91c;}.cls-5{fill:#fbbd11;}.cls-6{fill:#fff;}.cls-7{fill:#6046b0;}.cls-8{fill:#c5637f;}.cls-9{fill:#906cfe;}</style></defs><g id="Capa_2" data-name="Capa 2"><g id="Capa_1-2" data-name="Capa 1"><rect class="cls-1" width="946.8" height="306.72"/><path class="cls-2" d="M325.25,132.54h53.66V150.8h-29v6h27.69V171.3H349.9v19.34H325.25Z"/><path class="cls-2" d="M383.73,135.94c0-5.22,5.45-9,13.23-9,7.62,0,12.91,3.82,12.91,9s-5.29,9.13-12.91,9.13C389.18,145.07,383.73,141.26,383.73,135.94Zm.94,11.46h24.26v43.24H384.67Z"/><path class="cls-2" d="M415.78,141.5h24v13.37c3.11-10.63,8.87-15.61,19.21-15.61,12.45,0,19,7.89,19,23.57v27.81H453.65V167.81c0-5.81-1.94-9.21-6.53-9.21-4.82,0-7.08,3.15-7.08,9.38v22.66H415.78Z"/><path class="cls-2" d="M493.63,158.85H481V141.5h12.6v-8l24.27-3.16V141.5h13.45v17.35H517.9v31.79H493.63Z"/><path class="cls-2" d="M532.75,166c0-14.78,8.4-26.73,22.63-26.73,10,0,16,4.65,18.82,14.28v-12h24.27v49.14H574.2V178.52c-3,9.79-9.87,13.94-19.59,13.94C541,192.46,532.75,181.59,532.75,166Zm41.53-.25c0-5.06-3-8.38-8.09-8.38s-8.24,3.32-8.24,8.46,3.27,8.63,8.17,8.63S574.28,170.88,574.28,165.74Z"/><path class="cls-2" d="M604.23,185.16V169.72c5.13,4.4,16.25,7.55,24.34,7.55,2.95,0,4.28-.91,4.28-2.07s-.63-2.08-4.28-2.82l-7.7-1.66c-12.13-2.49-16.1-7.22-16.1-14.61,0-10.37,10.58-16.93,27.07-16.93,10.18,0,18.74,2.41,23.56,5.23v14.52a43.38,43.38,0,0,0-19.21-4.64c-5,0-6.53.91-6.53,2.24s1.16,1.82,4.35,2.32l7.24,1.08c11,1.41,16.8,5.23,16.8,15.43,0,10-8.95,16.94-26.53,16.94C621.41,192.3,611.61,189.72,604.23,185.16Z"/><path class="cls-2" d="M672.28,158.85h-12.6V141.5h12.6v-8l24.26-3.16V141.5H710v17.35H696.54v31.79H672.28Z"/><path class="cls-2" d="M713.27,135.94c0-5.22,5.44-9,13.22-9,7.62,0,12.91,3.82,12.91,9s-5.29,9.13-12.91,9.13C718.71,145.07,713.27,141.26,713.27,135.94Zm.93,11.46h24.26v43.24H714.2Z"/><path class="cls-2" d="M743.36,165.57c0-14.85,10.89-26.31,32-26.31,9.56,0,16.25,2.08,21.07,4.9V161a26.61,26.61,0,0,0-13.3-3.49c-9.25,0-14.23,3.49-14.23,8.3,0,4.57,4.28,8.47,14.16,8.47a31,31,0,0,0,13.45-3.24V187.4c-5.75,3.24-13.22,5.06-21.46,5.06C753.63,192.46,743.36,180.34,743.36,165.57Z"/><path class="cls-2" d="M800.53,177c0-9.3,7.23-15.61,17.89-15.61,6.84,0,11.58,2.24,15.24,6.81-.93-7.22-6.61-11-14.93-11a26.26,26.26,0,0,0-16.18,5.81V146c5.6-3.82,13.69-6.73,24.5-6.73,19.91,0,30.25,10.05,30.25,28.47v22.91H833.89v-6.89c-3.19,5.14-8.86,8.55-16.8,8.55C806.75,192.3,800.53,185.82,800.53,177Zm33.36-1.42c0-2.82-2.49-4.73-6.22-4.73-3.5,0-5.68,2-5.68,4.73s2.18,4.73,5.6,4.73C831.33,180.34,833.89,178.35,833.89,175.61Z"/><path class="cls-2" d="M863.37,130.88h24.26v59.76H863.37Z"/><rect class="cls-3" x="59.17" y="57.44" width="216.48" height="205.44" rx="99.6"/><circle class="cls-4" cx="174.85" cy="160.16" r="102.72"/><circle class="cls-3" cx="174.85" cy="160.16" r="86.88"/><ellipse class="cls-5" cx="171.09" cy="160.16" rx="83.13" ry="86.88"/><path class="cls-6" d="M250.66,103.62a3,3,0,0,1-2.18-1.17,150.44,150.44,0,0,0-15.95-17.63,3,3,0,0,1,.65-4.83c7.63-4.08,15.76-8.48,23.62-12.74,12.59-6.82,25.6-13.87,37-19.78a5.45,5.45,0,0,1,2.51-.62,5.39,5.39,0,0,1,5,3.34A5.3,5.3,0,0,1,300.09,56c-8.94,9.17-19.48,19.53-29.68,29.55-5.8,5.7-11.8,11.59-17.43,17.2a3,3,0,0,1-2.12.87Z"/><path class="cls-2" d="M304,49a8.33,8.33,0,0,0-11.61-4.21c-11.39,5.92-24.41,13-37,19.8-5.23,2.84-10.58,5.73-15.82,8.55l-3.1,1.67-3.22,1.72-1.47.79-.22.13A6,6,0,0,0,230.47,87a146.93,146.93,0,0,1,15.63,17.28,6,6,0,0,0,3.52,2.23,5.86,5.86,0,0,0,.84.12h.41a6,6,0,0,0,4.23-1.75c.1-.1.21-.2.31-.31l2.13-2.11,2.14-2.12c4.23-4.18,8.59-8.46,12.84-12.64,10.21-10,20.76-20.41,29.73-29.6A8.26,8.26,0,0,0,304,49Zm-15.08,14c-3.76,3.76-7.66,7.62-11.63,11.54L265.54,86.14l-9.25,9.11c-.75.74-1.5,1.48-2.24,2.23l-2.22,2.2-1,.95a153.12,153.12,0,0,0-16.27-18l4.57-2.45,2.88-1.54,2.82-1.53,13.37-7.23c4.42-2.4,8.84-4.8,13.21-7.15s8.94-4.81,13.25-7.11c3.58-1.9,7.08-3.75,10.45-5.5a2.37,2.37,0,0,1,2.8,3.78C295.07,56.86,292,59.92,288.91,63.06Z"/><path class="cls-6" d="M283.09,192.46a24.17,24.17,0,0,1-26.18,5.75,21,21,0,0,1-8.34-6.49l-.94-1.13c-2.52-3-4.89-5.89-10.07-7.82a30.5,30.5,0,0,0-8.26-1.63,41.18,41.18,0,0,0-4.35-.24,41.79,41.79,0,0,0-9.58,1.23,33.41,33.41,0,0,1-7.48,1,20.61,20.61,0,0,1-3.21-.25c-10.19-1.54-16.7-9.76-19.48-13.27a35.76,35.76,0,0,1-2.12-3c5.35,11,15.31,16.59,17.66,17.79a3,3,0,0,1,1.56,3.32c-2.28,10.3-4.55,30.18,4.63,50.76-.89.45-1.79.88-2.71,1.29a80,80,0,0,1-61.75,1.89c-.94-.36-1.86-.74-2.78-1.14s-1.84-.79-2.74-1.22a82.2,82.2,0,0,1-16.7-10.5c-1-.78-1.9-1.57-2.82-2.39.52-8.4,1.31-17.48,2.45-26.82.16-1.31.33-2.64.51-4a1.38,1.38,0,0,1,0-.2c.16-1.23.33-2.47.51-3.71a.91.91,0,0,1,0-.23q.24-1.74.51-3.48c3-19.8,7.62-40,14.46-56.81,1.15-2.86,2.38-5.61,3.67-8.25l.17-.34q.87-1.8,1.8-3.51c.65-1.21,1.32-2.39,2-3.54s1.46-2.38,2.21-3.52l.35-.52v0a79.13,79.13,0,0,1,34.62-28.36,97.78,97.78,0,0,1,11.36-4.11l1.85-.53,1.18-.32c.75-.19,1.49-.38,2.23-.55l1.64-.38c2.22-.5,4.37-.9,6.41-1.23a107.51,107.51,0,0,1,16.91-1.42c2.14,0,3.38.08,3.44.09A3,3,0,0,1,228,79.52a38.09,38.09,0,0,0-2,5.16,3.07,3.07,0,0,1,1.25.68l.09.09A148.61,148.61,0,0,1,246.16,106a3,3,0,0,1-.27,3.91l-2.16,2.18-1,1,5.16,6.29,4.14,5,33.72,41.07a3.18,3.18,0,0,1,.41.66C290.35,175.33,289.15,185.67,283.09,192.46Z"/><path class="cls-2" d="M288.89,164.88a6.13,6.13,0,0,0-.82-1.31L256.81,125.5l-3-3.71L249.85,117l-3.09-3.76L248,112a6,6,0,0,0,1.6-5.48,5.92,5.92,0,0,0-1.06-2.33,150.2,150.2,0,0,0-18.93-20.73,24,24,0,0,1,.94-2.36,6,6,0,0,0,1-3.61,5.54,5.54,0,0,0-.38-1.83c0-.14-.11-.28-.17-.42a6,6,0,0,0-5-3.44c-.14,0-1.43-.09-3.64-.09a110.63,110.63,0,0,0-17.83,1.54h0a110.91,110.91,0,0,0-11,2.38l-.13,0c-.48.12-1,.26-1.44.4a100,100,0,0,0-12,4.26h0a82,82,0,0,0-36.43,29.8h0l-.23.34c-1.31,2-2.55,4-3.74,6.2-.73,1.32-1.44,2.66-2.12,4-.19.36-.36.72-.54,1.08-.61,1.25-1.2,2.52-1.77,3.82-8.21,18.39-13.22,40.74-16.25,59.81l-.36,2.35-.21,1.38c-.16,1.08-.32,2.16-.47,3.21,0,.18,0,.35-.07.52-.1.68-.19,1.35-.28,2s-.15,1.13-.23,1.7c-1.21,9.33-2.09,18.57-2.67,27.25.93.91,1.88,1.79,2.86,2.65s1.86,1.61,2.82,2.39c.47-8.28,1.23-17.24,2.32-26.46.15-1.26.3-2.52.46-3.78,0-.18,0-.36.07-.54.14-1.1.29-2.21.44-3.32,0-.12,0-.24,0-.36.17-1.23.35-2.46.53-3.69,2.62-17.84,6.54-36,12.12-51.73.85-2.41,1.74-4.72,2.68-7h0s0,0,0,0h0c.19-.48.38-.95.59-1.42q1.49-3.57,3.14-6.89c.54-1.1,1.1-2.18,1.67-3.24a0,0,0,0,0,0,0c.81-1.5,1.64-3,2.51-4.35.47-.77.95-1.53,1.44-2.27A76.07,76.07,0,0,1,181.6,86.14a94.88,94.88,0,0,1,9-3.43h0c1.49-.48,3-.91,4.4-1.3,1.23-.34,2.44-.64,3.62-.91l1.57-.36c.76-.17,1.5-.32,2.23-.46,1-.2,2-.38,3-.54a105.53,105.53,0,0,1,16.91-1.45c2.07,0,3.23.08,3.23.08-1,1.44-3.21,8.48-4,11l-.26.88.84-.44,3.08-1.61,0,0a144.44,144.44,0,0,1,18.44,20.13c-.67.68-1.34,1.35-2,2L240,111.56l-.36.37-.94,1,6.53,8,.7.84,37.49,45.68c3.68,8.07,2.69,17.19-2.58,23.1a21.2,21.2,0,0,1-22.8,5c-3.92-1.6-6-4.25-8.33-7-2.56-3.08-5.35-6.31-11.11-8.46a33.45,33.45,0,0,0-9-1.8,44.18,44.18,0,0,0-4.66-.26c-7.76,0-11.79,2.27-17.06,2.27a17.91,17.91,0,0,1-2.76-.21c-9-1.37-14.85-8.72-17.58-12.17-10.47-13.23-7.94-29.1-7.44-31.92a39.22,39.22,0,0,0-2.88,22.44c3.31,18.84,20,27.74,22.14,28.85-1.73,7.8-5.48,29.58,4.85,52.7.92-.41,1.82-.84,2.71-1.29s1.79-.91,2.66-1.4c-8.74-19.74-6.55-38.82-4.36-48.72a6,6,0,0,0,0-2.42,25.74,25.74,0,0,0,2.63.14,36.36,36.36,0,0,0,8.12-1.11A38.83,38.83,0,0,1,225,183.9a37.86,37.86,0,0,1,4,.23,28.28,28.28,0,0,1,7.54,1.45c4.42,1.65,6.35,4,8.8,6.93.63.77,1.29,1.56,2,2.35a22.72,22.72,0,0,0,8.45,6.13,27.19,27.19,0,0,0,29.56-6.53C292.18,186.78,293.58,175.17,288.89,164.88Z"/><path class="cls-7" d="M114.57,223.85a85.53,85.53,0,0,1-13.22-16.42c-.74-1.17-1.43-2.35-2.11-3.56.38-1.21.83-2.47,1.37-3.75a42.87,42.87,0,0,1,10.23-14.52c.75-.71,1.5-1.37,2.23-2l.34.37q2.58,2.79,4.88,5.16c.92.94,1.8,1.83,2.64,2.66.27.27.53.54.79.79l1.87,1.83.63.6c5.66,5.42,8.49,8.13,11.16,9.63s4.67,2.1,6.66,4.32a15.49,15.49,0,0,1,3.6,8.55c-.11,1.33-.29,3-.58,4.88a72.28,72.28,0,0,1-2.15,9.58c-.36,1.2-.72,2.31-1.09,3.35-.13.36-.25.71-.38,1l-.32.84c-.4,1-.79,2-1.18,2.83l-.25.55c-.92-.38-1.84-.79-2.74-1.22a82.2,82.2,0,0,1-16.7-10.5c-1-.78-1.9-1.57-2.82-2.39S115.5,224.76,114.57,223.85Z"/><path class="cls-2" d="M138.68,235.2l.18-.41c0-.09,0-.19.08-.29C138.85,234.74,138.77,235,138.68,235.2Zm9.94-18A18.25,18.25,0,0,0,144.27,207a16.62,16.62,0,0,0-5.51-3.93c-.59-.3-1.22-.62-1.91-1-2.34-1.31-5.08-3.94-10.55-9.18-.73-.7-1.46-1.4-2.18-2.12-.89-.86-1.77-1.74-2.65-2.64s-1.74-1.78-2.61-2.68-1.9-2-2.83-3l-.75-.81a3,3,0,0,0-3-.87,3.07,3.07,0,0,0-1.16.6c-.48.4-1,.8-1.41,1.23A45.82,45.82,0,0,0,97.84,199c-.18.43-.35.86-.51,1.28.61,1.23,1.25,2.44,1.91,3.63s1.37,2.39,2.11,3.56a43.55,43.55,0,0,1,2-6.15,39.32,39.32,0,0,1,8.75-12.77l.73-.7q2.42,2.58,4.89,5.07l1.71,1.7h0l1,.93c.57.57,1.15,1.13,1.73,1.68l.95.91c5.21,5,8,7.57,10.81,9.17.77.43,1.47.79,2.13,1.12a11.19,11.19,0,0,1,3.77,2.58,12.28,12.28,0,0,1,2.81,6.62c-.15,1.64-.35,3.28-.61,4.9,0,0,0,0,0,0a70.35,70.35,0,0,1-2,8.62c-.36,1.21-.73,2.32-1.09,3.36-.09.24-.17.47-.26.7-.19.52-.38,1-.57,1.49-.39,1-.77,1.86-1.16,2.7.9.43,1.82.84,2.74,1.22s1.84.78,2.78,1.14l.61-1.4c.15-.35.3-.7.44-1.07.59-1.43,1.18-3,1.75-4.77.17-.54.35-1.09.52-1.67.33-1.11.63-2.23.91-3.36a75.62,75.62,0,0,0,1.93-11.69A3.32,3.32,0,0,0,148.62,217.16Z"/><path class="cls-8" d="M195,78.21c3.63-2.43,17-10.72,32.55-6.9a37.16,37.16,0,0,1,13.32,6.36c13.25,10.17,10.26,23,20.64,27.36,6,2.53,12.61.62,17.94-.91a40.86,40.86,0,0,0,14.4-7.56,31.6,31.6,0,0,1-8.88,17.88c-8.89,8.59-22.33,10.2-32.22,7-13.41-4.29-14.24-15.4-30.78-28.68A87.38,87.38,0,0,0,195,78.21Z"/><path class="cls-2" d="M221.61,88.75l-.26.88.84-.44C222,89,221.81,88.89,221.61,88.75Zm0,0-.26.88.84-.44C222,89,221.81,88.89,221.61,88.75Zm0,0-.26.88.84-.44C222,89,221.81,88.89,221.61,88.75ZM295.3,94a3,3,0,0,0-3.38.27,37.61,37.61,0,0,1-13.34,7c-5.12,1.47-10.93,3.14-15.94,1a9.54,9.54,0,0,1-3-1.93,11,11,0,0,1-1.9-2.35,25.91,25.91,0,0,1-1.49-2.74c-.41-.87-.82-1.8-1.25-2.79-2-4.59-4.48-10.2-10.17-15.34-.69-.61-1.42-1.23-2.21-1.83l-.3-.23c-.73-.54-1.67-1.2-2.8-1.9a39.85,39.85,0,0,0-11.33-4.76c-15.67-3.86-29.44,3.67-34.78,7.21l0,0-.11.07a2.78,2.78,0,0,0-.6.53,3,3,0,0,0-.7,2.36,0,0,0,0,0,0,0,1.88,1.88,0,0,0,.12.48,2.86,2.86,0,0,0,1.21,1.6,2.55,2.55,0,0,0,.68.34l1,.35c.57.19,1.13.39,1.69.6a83,83,0,0,1,23.34,13.12,84.35,84.35,0,0,1,14.61,15.35c3.35,4.27,6.36,8.13,10.87,11a3.45,3.45,0,0,0,.41.25,26.61,26.61,0,0,0,5.86,2.64l.23.07a33.07,33.07,0,0,0,4.78,1.1,37.71,37.71,0,0,0,5.9.46c8.3,0,17.38-2.66,24.31-9.36A34.36,34.36,0,0,0,296.78,97,3,3,0,0,0,295.3,94ZM249.85,117a22.55,22.55,0,0,1-6.12-5c-.67-.71-1.31-1.47-2-2.27s-1.56-1.94-2.38-3a91.38,91.38,0,0,0-15.58-16.33q-.8-.65-1.62-1.26c-.19-.15-.38-.3-.58-.44a87.64,87.64,0,0,0-16.18-9.61c-1.13-.53-2.28-1-3.44-1.51,1-.52,2.2-1,3.44-1.52,5.75-2.26,13.3-3.87,21.36-1.89a32.16,32.16,0,0,1,4.38,1.42c.73.29,1.43.6,2.07.91a32.6,32.6,0,0,1,3.15,1.73A29.93,29.93,0,0,1,239,80.05l.17.14c6,4.63,8.2,9.74,10.38,14.69.71,1.62,1.43,3.24,2.28,4.8a24.15,24.15,0,0,0,1.62,2.61,18.31,18.31,0,0,0,2,2.28,15.93,15.93,0,0,0,4.89,3.22c7,2.94,14.47.79,19.94-.79a42.88,42.88,0,0,0,8.54-3.48,26.36,26.36,0,0,1-5.93,8.76c-8.38,8.1-21,9-29.23,6.33A21.37,21.37,0,0,1,249.85,117ZM221.61,88.75l-.26.88.84-.44C222,89,221.81,88.89,221.61,88.75Zm0,0-.26.88.84-.44C222,89,221.81,88.89,221.61,88.75Z"/><path class="cls-2" d="M218,124.85a8.34,8.34,0,0,1,9,1.6c2.84,2.64,3.36,6.9.82,9.45a19.73,19.73,0,0,0-3.73-6.22A22.33,22.33,0,0,0,218,124.85Z"/><path class="cls-9" d="M159.17,217.4a36.2,36.2,0,0,1-8.32,12.23,44.45,44.45,0,0,1-9.8,7.64l.65-1.48a27.55,27.55,0,0,0-10-29.27h0a67.07,67.07,0,0,1-5.32-4.56c-3.46-3.29-7.91-7.51-11.28-14.13a44.2,44.2,0,0,1-4.56-17.11,53.55,53.55,0,0,1,.72-14.16,52.67,52.67,0,0,1,3.24-11.88,44.8,44.8,0,0,1,14.64-18.24c2.91-2.18,4.82-4,7.56-5.4a28.52,28.52,0,0,1,8.28-2.6c-3.11,8.36-2.93,14.84-1.71,19.71,1.42,5.74,3.23,5,5.31,12.6,1.22,4.5,6.92,5.06,9.45,16.47.14.64.55,2.71.63,3.06-.16,1.53-4.54,11.77-4.44,11.7,1,2.44,2.24,4.24,3.64,7.39a48.56,48.56,0,0,1,2.49,7.15C163.17,207,159.33,217,159.17,217.4Z"/><path class="cls-2" d="M151.44,183c-.05-.31-.11-.62-.17-.93a2.31,2.31,0,0,0,.26,1.3A2.49,2.49,0,0,1,151.44,183Zm0,0c-.05-.31-.11-.62-.17-.93a2.31,2.31,0,0,0,.26,1.3A2.49,2.49,0,0,1,151.44,183Zm-5.7-31.35a10,10,0,0,0,2.1,3.79C147.09,154.16,146.39,153,145.74,151.62Zm5.7,31.35c-.05-.31-.11-.62-.17-.93a2.31,2.31,0,0,0,.26,1.3A2.49,2.49,0,0,1,151.44,183Zm-3.6-27.56c-.75-1.25-1.45-2.45-2.1-3.79A10,10,0,0,0,147.84,155.41Zm15.44,40.34a49.93,49.93,0,0,0-2.65-7.6c-.71-1.61-1.4-2.89-2-4l-.4-.74c-.26-.5-.51-1-.74-1.47.1-.23.21-.49.32-.77l.87-2.12c2.16-5.33,2.88-7.4,3-8.44,0-.1,0-.2,0-.3a3.05,3.05,0,0,0-.07-.67c0-.15-.13-.62-.24-1.16-.15-.71-.31-1.53-.39-1.89-1.76-7.93-5-11.26-7.34-13.7-1.24-1.28-1.9-2-2.15-2.91a27.31,27.31,0,0,0-3.36-8,13.84,13.84,0,0,1-1.93-4.54c-1.34-5.4-.8-11.43,1.61-17.94a3,3,0,0,0-.49-2.94,3.17,3.17,0,0,0-.49-.48,3,3,0,0,0-2.23-.59h-.06l-1,.17c-.79.14-1.56.32-2.32.52-.58.15-1.15.32-1.71.5s-1.14.39-1.7.61c-.82.32-1.64.68-2.43,1.07a30.56,30.56,0,0,0-5.78,3.92c-.7.56-1.44,1.15-2.26,1.77a47.84,47.84,0,0,0-15.61,19.48,56.13,56.13,0,0,0-3.43,12.54,57.88,57.88,0,0,0-.75,14.92,50.53,50.53,0,0,0,2.16,11.57c.31,1,.67,2,1.1,3s.8,1.92,1.29,2.91c.1.22.21.45.33.68a44.26,44.26,0,0,0,4.78,7.41c.88,1.12,1.76,2.14,2.64,3.08s1.83,1.91,2.69,2.75l1.78,1.7a71.4,71.4,0,0,0,5.57,4.78,24.56,24.56,0,0,1,9,25.59c0,.1-.06.2-.08.29l-.18.41-.38.86a2.85,2.85,0,0,0-.19.63,3,3,0,0,0,.94,2.81,3.1,3.1,0,0,0,.89.56,3,3,0,0,0,2.61-.19c.33-.19.65-.38,1-.59a46.65,46.65,0,0,0,9.5-7.57,49.85,49.85,0,0,0,4.37-5A35.22,35.22,0,0,0,162,218.5C162.14,218,166.33,207.19,163.28,195.75Zm-6.9,20.55a32.94,32.94,0,0,1-7.68,11.24c-.64.67-1.31,1.31-2,1.94-.36.33-.73.65-1.1,1a30.46,30.46,0,0,0-.54-8,28.42,28.42,0,0,0-1-3.68,30.81,30.81,0,0,0-10.51-14.59c-1.76-1.36-3.47-2.83-5.08-4.35s-3.24-3.08-4.94-5c-.61-.69-1.22-1.42-1.82-2.19-.26-.33-.52-.67-.76-1a36.19,36.19,0,0,1-2.46-3.81c-.24-.42-.47-.85-.7-1.3A35.65,35.65,0,0,1,116,182.4a43.58,43.58,0,0,1-2.47-11.94,50.86,50.86,0,0,1,.69-13.41,49,49,0,0,1,3-11.21,41.11,41.11,0,0,1,13.67-17c.87-.66,1.66-1.29,2.41-1.88s1.18-.94,1.73-1.35.88-.66,1.33-1a16,16,0,0,1,1.61-.93c.51-.25,1-.48,1.55-.69l.12,0a9,9,0,0,1,.86-.34,36.1,36.1,0,0,0-1.07,7.89,30.57,30.57,0,0,0,.88,8.32,19.41,19.41,0,0,0,2.61,6.19c.25.41.5.82.75,1.27a23.57,23.57,0,0,1,2,5.21s0,.05,0,.08a10,10,0,0,0,2.1,3.79c.47.58,1,1.1,1.5,1.63,2.06,2.13,4.4,4.55,5.79,10.83.08.34.23,1.11.37,1.78,0,.21.08.41.12.59-.13.4-.33,1-.59,1.67-.52,1.39-1.24,3.21-1.85,4.71-.38.92-.7,1.73-.92,2.25a11,11,0,0,0-1,3.17,2.31,2.31,0,0,0,.26,1.3,1.34,1.34,0,0,0,.13.23c.08.2.17.39.26.58.44,1,.92,1.88,1.42,2.81.58,1.09,1.18,2.22,1.81,3.63a43.47,43.47,0,0,1,2.33,6.7C160,206.82,156.43,216.16,156.38,216.3Zm-10.64-64.68a10,10,0,0,0,2.1,3.79C147.09,154.16,146.39,153,145.74,151.62Zm5.7,31.35c-.05-.31-.11-.62-.17-.93a2.31,2.31,0,0,0,.26,1.3A2.49,2.49,0,0,1,151.44,183Zm-5.7-31.35a10,10,0,0,0,2.1,3.79C147.09,154.16,146.39,153,145.74,151.62Zm5.7,31.35c-.05-.31-.11-.62-.17-.93a2.31,2.31,0,0,0,.26,1.3A2.49,2.49,0,0,1,151.44,183Z"/><path class="cls-8" d="M196.31,78.63c-26.44,18.09-31.72,32.15-31.32,41.88s6.61,21.08,4.8,34.85a44.65,44.65,0,0,1-5.58,16.56,35.2,35.2,0,0,1-3.62,5.11,31.18,31.18,0,0,1-6.19,5.43A91.66,91.66,0,0,0,151.94,172c-4.38-14.59-8.62-15.14-11.43-26.13a57.36,57.36,0,0,1,0-26.65,46.31,46.31,0,0,1,1.43-5.1c4.66-13.57,16.33-23,17.25-23.78C174.18,78.4,191.5,78.46,196.31,78.63Z"/><path class="cls-2" d="M145.74,151.62a10,10,0,0,0,2.1,3.79C147.09,154.16,146.39,153,145.74,151.62Zm53.45-73.83a2.45,2.45,0,0,0-.17-.45,3,3,0,0,0-.88-1.09,3,3,0,0,0-1.72-.62c-.82,0-1.79,0-2.89,0h-.08c-.85,0-1.78,0-2.77.11-8.43.5-21.66,3-33.41,12.29-1.35,1.07-13.31,10.89-18.22,25.15-.56,1.63-.94,3-1.21,4.12l-.3,1.28c-.18.78-.34,1.54-.49,2.32h0c-.06.3-.12.6-.17.9-.17,1-.32,1.92-.44,2.87a57.41,57.41,0,0,0-.51,6.63,54.89,54.89,0,0,0,.31,7.72,51.66,51.66,0,0,0,1.36,7.62,41.27,41.27,0,0,0,5.25,12.15,55.84,55.84,0,0,1,6.22,14.1,85.33,85.33,0,0,1,2.2,9.16c.06.31.12.62.17.93a2.49,2.49,0,0,0,.09.37,3,3,0,0,0,.39.81,3,3,0,0,0,1.29,1.07,3.12,3.12,0,0,0,1.19.24,2.94,2.94,0,0,0,1.36-.33l.3-.17c.75-.5,1.47-1,2.17-1.57a34.28,34.28,0,0,0,4.62-4.39,35.3,35.3,0,0,0,3.7-5.16l.21-.34a47.24,47.24,0,0,0,6-17.75c1.19-9.06-.84-17-2.63-24.06a58.23,58.23,0,0,1-2.15-11.3c-.49-11.84,9.17-24.75,28.72-38.38.43-.31.86-.6,1.29-.9a3.2,3.2,0,0,0,1.1-1.4,2.88,2.88,0,0,0,.19-1.3A2.23,2.23,0,0,0,199.19,77.79Zm-12.78,4.37c-1.69,1.33-3.3,2.66-4.81,4-13.48,11.77-20.06,23.34-19.61,34.49a62.61,62.61,0,0,0,2.34,12.54c1.73,6.83,3.53,13.88,2.49,21.8a41.67,41.67,0,0,1-5.13,15.32l0,.05-.22.35a30.46,30.46,0,0,1-3.11,4.37c-.61.7-1.27,1.38-2,2a1.89,1.89,0,0,1,0-.23h0q-.59-2.49-1.3-4.93c-.07-.25-.14-.5-.22-.75A61.55,61.55,0,0,0,148,155.73c-.06-.11-.13-.21-.18-.32-.75-1.25-1.45-2.45-2.1-3.79a32.11,32.11,0,0,1-2-5.29c-.12-.38-.22-.77-.33-1.18a52.4,52.4,0,0,1-.77-21.49c.2-1.25.44-2.5.73-3.75.08-.32.17-.73.29-1.22h0c.22-.87.52-2,.94-3.21l.12-.36a37,37,0,0,1,1.4-3.5v0c5.05-11,14.43-18.54,14.87-18.88a50.45,50.45,0,0,1,19.75-9.48C182.74,82.75,184.64,82.41,186.41,82.16Z"/><path class="cls-2" d="M266.1,91.39a42.31,42.31,0,0,1-5.37-6.92,41.76,41.76,0,0,1-6.07-18.62l6-.48a35.58,35.58,0,0,0,5.2,15.94,34.61,34.61,0,0,0,4.59,5.92Z"/><path class="cls-2" d="M278.2,79.9A30.69,30.69,0,0,1,268,59.77l6-.56A23.89,23.89,0,0,0,278.3,71a24.05,24.05,0,0,0,3.88,4.44Z"/><path class="cls-2" d="M290.32,68.41a25.34,25.34,0,0,1-4.27-4.07A21.16,21.16,0,0,1,282.31,58a20.48,20.48,0,0,1-1.06-4.23L287.2,53a14.51,14.51,0,0,0,.74,3,15.53,15.53,0,0,0,2.74,4.6,18.81,18.81,0,0,0,3.23,3.07Z"/></g></g></svg>