<svg xmlns="http://www.w3.org/2000/svg" viewBox="0 0 946.8 306.72"><defs><style>.cls-1{fill:none;}.cls-2{fill:#fff;}</style></defs><g id="Capa_2" data-name="Capa 2"><g id="Capa_1-2" data-name="Capa 1"><rect class="cls-1" width="946.8" height="306.72"/><path class="cls-2" d="M72.63,161.16A102.72,102.72,0,0,1,175.35,58.44H159.27A99.6,99.6,0,0,0,59.67,158v6.24a99.6,99.6,0,0,0,99.6,99.6h16.08A102.72,102.72,0,0,1,72.63,161.16Z"/><path class="cls-2" d="M176.55,263.88a99.25,99.25,0,0,0,67.64-26.49,102.33,102.33,0,0,1-68.84,26.49Z"/><path class="cls-2" d="M219.87,68.33a99.18,99.18,0,0,0-43.32-9.89h-1.2a102.17,102.17,0,0,1,44,9.9Z"/><path class="cls-2" d="M173.44,74.31c-.61,0-1.23,0-1.84,0-43.11,0-78.54,34.28-82.71,78.17q-.11,1.05-.18,2.1c0,.71-.1,1.42-.13,2.14-.07,1.48-.11,3-.11,4.47s0,3,.11,4.47.19,3.15.36,4.7a88.84,88.84,0,0,0,8.89,30.91c.06-.15.11-.3.18-.45s.21-.55.33-.83a45.82,45.82,0,0,1,11.9-16.41A50.53,50.53,0,0,1,108.08,172a57.88,57.88,0,0,1,.75-14.92,56.13,56.13,0,0,1,3.43-12.54A47.84,47.84,0,0,1,127.87,125c.82-.62,1.56-1.21,2.26-1.77a30.56,30.56,0,0,1,5.78-3.92c.79-.39,1.61-.75,2.43-1.07.27-1.07.65-2.49,1.21-4.12C144.46,99.9,156.42,90.08,157.77,89c11.75-9.34,25-11.79,33.41-12.29A78.21,78.21,0,0,0,173.44,74.31Z"/><path class="cls-2" d="M255.54,93.46c.43,1,.84,1.92,1.25,2.79,2.34-2.31,4.71-4.65,7.1-7a39.59,39.59,0,0,1-2.65-3.79,41.63,41.63,0,0,1-4.08-8.73A41.1,41.1,0,0,1,256,72.39l-10.61,5.73C251.06,83.26,253.52,88.87,255.54,93.46Z"/><path class="cls-2" d="M266.34,82.31c.58.93,1.2,1.84,1.86,2.71l7.43-7.31c-.62-.75-1.22-1.54-1.78-2.36A30.4,30.4,0,0,1,270,67.86c-.3-.86-.56-1.75-.78-2.64l-7.68,4.16a35.55,35.55,0,0,0,4.82,12.93Z"/><path class="cls-2" d="M278.81,72a18.27,18.27,0,0,0,1.12,1.5c2.49-2.45,4.94-4.89,7.35-7.29-.25-.27-.49-.55-.73-.84A21.41,21.41,0,0,1,282.82,59c-.12-.31-.22-.62-.32-.94l-7.79,4.18a23.74,23.74,0,0,0,4.1,9.72Z"/><path class="cls-2" d="M296.77,50.84a2.4,2.4,0,0,0-1.12.29c-2.51,1.3-5.09,2.66-7.72,4.06a13.32,13.32,0,0,0,.51,1.74,15.16,15.16,0,0,0,2.75,4.59c.11.13.22.27.35.4q3.57-3.59,6.91-7A2.4,2.4,0,0,0,296.77,50.84Z"/><path class="cls-2" d="M288.57,164.57l-11-13.38-1.86-2.25L257.31,126.5c-.85-.13-1.68-.29-2.48-.48s-1.56-.39-2.3-.62l-.23-.07a26.61,26.61,0,0,1-5.86-2.64l12.72,15.5,17,20.7,1.92,2.34,5.86,7.14c3.68,8.07,2.69,17.19-2.58,23.1a19,19,0,0,1-9.79,5.73c-.35.09-.71.17-1.07.24a22.64,22.64,0,0,1-4.31.42,20.29,20.29,0,0,1-7.63-1.42,14.6,14.6,0,0,1-3.06-1.68,27.76,27.76,0,0,1-5.27-5.34c-2.56-3.08-5.35-6.31-11.11-8.46a33.45,33.45,0,0,0-9-1.8,44.18,44.18,0,0,0-4.66-.26c-7.76,0-11.79,2.27-17.06,2.27a17.91,17.91,0,0,1-2.76-.21c-9-1.37-14.85-8.72-17.58-12.17-10.47-13.23-7.94-29.1-7.44-31.92a39.22,39.22,0,0,0-2.88,22.44c3.31,18.84,20,27.74,22.14,28.85-1.73,7.8-5.48,29.58,4.85,52.7.92-.41,1.82-.84,2.71-1.29l.33-.17c.49-.24,1-.5,1.47-.76l.86-.47a85.71,85.71,0,0,0,37.73-42.31,24.51,24.51,0,0,0,5.12,4.42,22.53,22.53,0,0,0,3.33,1.71,26.4,26.4,0,0,0,9.91,1.87c.61,0,1.22,0,1.82-.07.29,0,.57,0,.85-.06a25.76,25.76,0,0,0,17-8.27c6.85-7.68,8.25-19.29,3.56-29.58A6.13,6.13,0,0,0,288.57,164.57Z"/><path class="cls-2" d="M130.42,209.91a71.4,71.4,0,0,1-5.57-4.78l-1.78-1.7c-.86-.84-1.77-1.75-2.69-2.75s-1.76-2-2.64-3.08a44.26,44.26,0,0,1-4.78-7.41c-.12-.23-.23-.46-.33-.68a39.32,39.32,0,0,0-8.75,12.77,44.4,44.4,0,0,0-1.86,5.48c-.06.23-.11.45-.17.67.44.7.88,1.4,1.34,2.09l.19.29c.46.69.93,1.37,1.41,2.05s.93,1.3,1.41,1.94l.43.56c.39.51.79,1,1.2,1.52.13.18.28.36.43.54.26.33.53.66.81,1s.66.79,1,1.17q.72.84,1.47,1.65c.53.58,1.07,1.16,1.62,1.72l.14.14q.83.85,1.68,1.68l.2.2c.34.32.68.65,1,1,.57.54,1.14,1.06,1.73,1.58l.07.06,1.33,1.15c.44.38.89.75,1.34,1.11l.08.07.15.12c.48.39,1,.77,1.46,1.15l.71.54c.53.4,1.07.79,1.61,1.18s1.34,1,2,1.41,1.62,1.07,2.45,1.58c.55.35,1.11.69,1.67,1a.82.82,0,0,0,.2.12c.54.32,1.08.63,1.63.92a5.76,5.76,0,0,0,.69.38c.52.29,1,.57,1.57.83.12.08.25.14.38.21.65.33,1.31.65,2,1l.18.09c.13-.28.26-.56.38-.85.26-.59.52-1.2.78-1.85.19-.48.38-1,.57-1.49l.18-.41c0-.09,0-.19.08-.29a24.56,24.56,0,0,0-9-25.59Z"/><path class="cls-2" d="M202.51,78.62h0c1.16.48,2.31,1,3.44,1.51a87.64,87.64,0,0,1,16.18,9.61c.2.14.39.29.58.44q.83.61,1.62,1.26a91.38,91.38,0,0,1,15.58,16.33c.82,1.06,1.61,2.06,2.38,3s1.29,1.56,2,2.27a22.55,22.55,0,0,0,6.12,5c.19.11.39.21.59.31a21.51,21.51,0,0,0,3.18,1.29,31.41,31.41,0,0,0,14.68.83q.4-.06.81-.15a27.36,27.36,0,0,0,13.74-7,26.36,26.36,0,0,0,5.93-8.76,42.88,42.88,0,0,1-8.54,3.48c-4.55,1.31-10.49,3-16.38,1.87l-.7-.15a18.33,18.33,0,0,1-2.86-.93,15.93,15.93,0,0,1-4.89-3.22,18.31,18.31,0,0,1-2-2.28,24.15,24.15,0,0,1-1.62-2.61c-.85-1.56-1.57-3.18-2.28-4.8-2.18-4.95-4.42-10.06-10.38-14.69l-.17-.14a29.93,29.93,0,0,0-2.61-1.77,32.6,32.6,0,0,0-3.15-1.73c-.64-.31-1.34-.62-2.07-.91a32.16,32.16,0,0,0-4.38-1.42c-8.06-2-15.61-.37-21.36,1.89C204.7,77.6,203.55,78.1,202.51,78.62Z"/><path class="cls-2" d="M239.82,81.11l-.07,0q1.71,1.36,3.35,2.81C242,83,240.93,82,239.82,81.11Z"/><path class="cls-2" d="M218.54,125.85a22.49,22.49,0,0,1,6.05,4.83,19.51,19.51,0,0,1,3.73,6.22c2.54-2.55,2-6.81-.83-9.45A8.32,8.32,0,0,0,218.54,125.85Z"/><path class="cls-2" d="M147.2,230.48c.69-.63,1.36-1.27,2-1.94a32.94,32.94,0,0,0,7.68-11.24c.05-.14,3.64-9.48,1.1-19a43.47,43.47,0,0,0-2.33-6.7c-.63-1.41-1.23-2.54-1.81-3.63-.5-.93-1-1.82-1.42-2.81a3,3,0,0,1-.39-.81,2.31,2.31,0,0,1-.26-1.3,85.33,85.33,0,0,0-2.2-9.16,55.84,55.84,0,0,0-6.22-14.1,41.27,41.27,0,0,1-5.25-12.15,51.66,51.66,0,0,1-1.36-7.62,54.89,54.89,0,0,1-.31-7.72,57.41,57.41,0,0,1,.51-6.63c-.45.29-.88.61-1.33,1s-1.12.86-1.73,1.35-1.54,1.22-2.41,1.88a41.11,41.11,0,0,0-13.67,17,49,49,0,0,0-3,11.21,50.86,50.86,0,0,0-.69,13.41,43.58,43.58,0,0,0,2.47,11.94,35.65,35.65,0,0,0,1.77,4.07c.23.45.46.88.7,1.3a36.19,36.19,0,0,0,2.46,3.81.91.91,0,0,0,0,.23c.27.27.53.54.79.79.6.77,1.21,1.5,1.82,2.19,1.7,1.92,3.4,3.54,4.94,5s3.32,3,5.08,4.35a30.81,30.81,0,0,1,10.51,14.59,28.42,28.42,0,0,1,1,3.68,30.46,30.46,0,0,1,.54,8C146.47,231.13,146.84,230.81,147.2,230.48Z"/><path class="cls-2" d="M182.1,87.14c1.51-1.32,3.12-2.65,4.81-4-1.77.25-3.67.59-5.65,1.07a50.45,50.45,0,0,0-19.75,9.48c-.44.34-9.82,7.89-14.87,18.88v0a37,37,0,0,0-1.4,3.5l-.12.36c-.42,1.24-.72,2.34-.94,3.21h0c-.12.49-.21.9-.29,1.22-.29,1.25-.53,2.5-.73,3.75a52.4,52.4,0,0,0,.77,21.49c.11.41.21.8.33,1.18a32.11,32.11,0,0,0,2,5.29,10,10,0,0,0,2.1,3.79c0,.11.12.21.18.32a61.55,61.55,0,0,1,6.79,15.43c.08.25.15.5.22.75q.72,2.44,1.3,4.93h0a1.89,1.89,0,0,0,0,.23c.68-.64,1.34-1.32,2-2a30.46,30.46,0,0,0,3.11-4.37l.22-.35,0-.05A41.67,41.67,0,0,0,167.32,156c1-7.92-.76-15-2.49-21.8a62.61,62.61,0,0,1-2.34-12.54C162,110.48,168.62,98.91,182.1,87.14Z"/><path class="cls-2" d="M324.75,132.54h53.66V150.8h-29v6h27.69V171.3H349.4v19.34H324.75Z"/><path class="cls-2" d="M383.23,135.94c0-5.22,5.45-9,13.22-9s12.91,3.82,12.91,9-5.28,9.13-12.91,9.13S383.23,141.26,383.23,135.94Zm.93,11.46h24.27v43.24H384.16Z"/><path class="cls-2" d="M415.27,141.5h24v13.37c3.11-10.63,8.87-15.61,19.21-15.61,12.44,0,19,7.89,19,23.57v27.81H453.15V167.81c0-5.81-1.94-9.21-6.53-9.21-4.82,0-7.08,3.15-7.08,9.38v22.66H415.27Z"/><path class="cls-2" d="M493.13,158.85h-12.6V141.5h12.6v-8l24.26-3.16V141.5h13.46v17.35H517.39v31.79H493.13Z"/><path class="cls-2" d="M532.25,166c0-14.78,8.4-26.73,22.63-26.73,10,0,15.94,4.65,18.82,14.28v-12H598v49.14H573.7V178.52c-3,9.79-9.87,13.94-19.6,13.94C540.49,192.46,532.25,181.59,532.25,166Zm41.53-.25c0-5.06-3-8.38-8.09-8.38s-8.24,3.32-8.24,8.46,3.26,8.63,8.16,8.63C570.67,174.45,573.78,170.88,573.78,165.74Z"/><path class="cls-2" d="M603.72,185.16V169.72c5.14,4.4,16.26,7.55,24.35,7.55,2.95,0,4.27-.91,4.27-2.07s-.62-2.08-4.27-2.82l-7.7-1.66c-12.14-2.49-16.1-7.22-16.1-14.61,0-10.37,10.58-16.93,27.06-16.93,10.19,0,18.75,2.41,23.57,5.23v14.52a43.42,43.42,0,0,0-19.21-4.64c-5,0-6.53.91-6.53,2.24s1.16,1.82,4.35,2.32l7.23,1.08c11,1.41,16.8,5.23,16.8,15.43,0,10-8.94,16.94-26.52,16.94C620.91,192.3,611.11,189.72,603.72,185.16Z"/><path class="cls-2" d="M671.78,158.85h-12.6V141.5h12.6v-8L696,130.38V141.5H709.5v17.35H696v31.79H671.78Z"/><path class="cls-2" d="M712.76,135.94c0-5.22,5.45-9,13.22-9s12.92,3.82,12.92,9-5.29,9.13-12.92,9.13S712.76,141.26,712.76,135.94Zm.94,11.46H738v43.24H713.7Z"/><path class="cls-2" d="M742.86,165.57c0-14.85,10.89-26.31,32-26.31,9.57,0,16.26,2.08,21.08,4.9V161a26.61,26.61,0,0,0-13.3-3.49c-9.25,0-14.23,3.49-14.23,8.3,0,4.57,4.28,8.47,14.15,8.47a31,31,0,0,0,13.46-3.24V187.4c-5.76,3.24-13.22,5.06-21.47,5.06C753.13,192.46,742.86,180.34,742.86,165.57Z"/><path class="cls-2" d="M800,177c0-9.3,7.23-15.61,17.88-15.61,6.85,0,11.59,2.24,15.25,6.81-.94-7.22-6.61-11-14.94-11a26.25,26.25,0,0,0-16.17,5.81V146c5.6-3.82,13.69-6.73,24.5-6.73,19.91,0,30.25,10.05,30.25,28.47v22.91H833.39v-6.89c-3.19,5.14-8.87,8.55-16.8,8.55C806.25,192.3,800,185.82,800,177Zm33.36-1.42c0-2.82-2.49-4.73-6.22-4.73-3.5,0-5.68,2-5.68,4.73s2.18,4.73,5.6,4.73C830.82,180.34,833.39,178.35,833.39,175.61Z"/><path class="cls-2" d="M862.87,130.88h24.26v59.76H862.87Z"/></g></g></svg>